<?xml version="1.0" encoding="UTF-8"?>
<svg width="149px" height="149px" viewBox="0 0 149 149" version="1.1" xmlns="http://www.w3.org/2000/svg" xmlns:xlink="http://www.w3.org/1999/xlink">
    <title>Group 2</title>
    <defs>
        <rect id="path-1" x="0" y="0" width="149" height="149" rx="35"></rect>
    </defs>
    <g id="Page-1" stroke="none" stroke-width="1" fill="none" fill-rule="evenodd">
        <g id="Group-2">
            <mask id="mask-2" fill="white">
                <use xlink:href="#path-1"></use>
            </mask>
            <g id="Rectangle"></g>
            <g id="icon" mask="url(#mask-2)">
                <g transform="translate(-4.000000, -7.000000)" id="Group">
                    <g>
                        <g id="p0-link" fill="#000000" fill-rule="nonzero" stroke="#FFFFFF">
                            <path d="M0,0 L158,0 L158,159 L0,159 L0,0 Z M30.6276923,3.9459854 C26.1423443,4.59591241 21.8306227,5.32708029 17.8372161,7.60762774 C12.4084982,10.770219 8.02732601,15.609854 5.59655678,21.4301825 C5.53289377,21.8421898 5.47501832,22.2483942 5.41135531,22.6604015 C5.14512821,23.4205839 4.90205128,24.1865693 4.65897436,24.9525547 C4.4621978,26.1189416 4.30593407,27.2911314 4.14388278,28.4575182 C3.53619048,32.0495255 3.76190476,35.8214234 3.67509158,39.459854 C3.60564103,66.5420803 3.67509158,93.6185036 3.66930403,120.70073 C3.6403663,126.648723 3.9181685,132.289161 6.09428571,137.894781 C9.81567766,147.289708 18.7921612,154.299635 28.9666667,154.833504 C32.7401465,155.466022 36.6930403,155.228102 40.5128205,155.320949 C66.169011,155.332555 91.830989,155.332555 117.487179,155.320949 C121.087033,155.251314 124.912601,155.448613 128.431429,154.781277 C129.23011,154.694234 130.023004,154.612993 130.821685,154.525949 C132.644762,153.899234 134.485201,153.307336 136.325641,152.73865 L136.331429,152.12354 L137.407912,152.523942 L137.517875,152.030693 C143.936264,149.053796 148.433187,143.506204 150.991282,136.989526 C151.494799,135.062956 151.946227,133.118978 152.432381,131.192409 C152.548132,127.693248 152.744908,124.199891 152.889597,120.70073 C152.901172,93.2355109 152.889597,65.7644891 152.901172,38.2992701 C152.768059,34.8291241 152.530769,31.3589781 152.380293,27.8830292 C152.148791,26.9023358 151.917289,25.9158394 151.743663,24.9177372 C151.355897,23.7107299 150.99707,22.4863139 150.638242,21.2677007 C148.774652,16.6485766 146.01978,12.5285036 141.980073,9.55740876 C138.44967,6.92288321 134.340513,5.1239781 129.959341,4.54368613 C126.562051,4.21291971 123.228425,3.62682482 119.802198,3.70226277 C92.6007326,3.68485401 65.3992674,3.69065693 38.1978022,3.69645985 C35.6860073,3.71967153 33.1279121,3.66744526 30.6276923,3.9459854 Z" id="p0"></path>
                        </g>
                        <g id="p1-link" transform="translate(3.644006, 3.690657)" fill="#000000" fill-rule="nonzero" stroke="#2D5A40">
                            <path d="M34.5537965,0.00580291971 C61.7552617,0 88.9567269,-0.00580291971 116.158192,0.0116058394 C119.584419,-0.0638321168 122.918046,0.522262774 126.315335,0.853029197 C130.696507,1.43332117 134.805665,3.23222628 138.336068,5.86675182 C142.375775,8.83784672 145.130646,12.9579197 146.994236,17.5770438 C147.353064,18.7956569 147.711892,20.020073 148.099657,21.2270803 C148.273284,22.2251825 148.504786,23.2116788 148.736287,24.1923723 C148.886764,27.6683212 149.124053,31.1384672 149.257166,34.6086131 C149.245591,62.0738321 149.257166,89.544854 149.245591,117.010073 C149.100903,120.509234 148.904126,124.002591 148.788375,127.501752 C148.302221,129.428321 147.850793,131.372299 147.347276,133.298869 C144.789181,139.815547 140.292258,145.363139 133.87387,148.340036 L133.763906,148.833285 L132.687423,148.432883 L132.681635,149.047993 C130.841196,149.616679 129.000756,150.208577 127.177679,150.835292 C126.378998,150.922336 125.586104,151.003577 124.787423,151.09062 C121.268595,151.757956 117.443027,151.560657 113.843174,151.630292 C88.1869833,151.641898 62.5250053,151.641898 36.8688148,151.630292 C33.0490346,151.537445 29.0961408,151.775365 25.322661,151.142847 C15.1481555,150.608978 6.17167196,143.599051 2.45028002,134.204124 C0.274162804,128.598504 -0.00363939363,122.958066 0.0252983353,117.010073 C0.0310858811,89.9278467 -0.0383646684,62.8514234 0.0310858811,35.7691971 C0.117899068,32.1307664 -0.107815218,28.3588686 0.49987709,24.7668613 C0.661928372,23.6004745 0.818192108,22.4282847 1.01496866,21.2618978 C1.25804559,20.4959124 1.50112251,19.729927 1.76734962,18.9697445 C1.83101262,18.5577372 1.88888808,18.1515328 1.95255108,17.7395255 C4.38332031,11.9191971 8.76449247,7.07956204 14.1932104,3.9169708 C18.186617,1.63642336 22.4983386,0.905255474 26.9836866,0.255328467 C29.4839064,-0.0232116788 32.0420016,0.0290145985 34.5537965,0.00580291971 Z M37.8642727,20.7802555 C37.6790712,22.9563504 37.4128441,25.1730657 37.9105731,27.3259489 C38.7208295,30.500146 40.3760676,33.4190146 42.9341628,35.4964599 C45.8395108,37.9627007 49.2252251,39.4656569 52.7903533,40.6958759 C56.7721848,42.1698175 60.8755547,43.6263504 64.5911591,45.6979927 C68.7350419,48.0365693 72.0050053,51.4951095 74.49365,55.5281387 C76.9186317,51.5067153 80.2638331,47.9843431 84.3961408,45.7154015 C88.4242727,43.5335036 92.7938698,41.9086861 97.1055914,40.3825182 C102.215994,38.5836131 107.824126,35.4674453 110.087057,30.2564234 C111.580243,27.2621168 111.533943,24.1285401 111.18669,20.8731022 C109.687716,22.9041241 108.292917,24.859708 106.325152,26.4787226 C102.916287,29.2235036 98.9923313,30.7786861 94.8600236,32.0495255 C82.2778991,25.8578102 66.7730639,25.9216423 54.1562141,31.9914964 C49.5898405,30.6104015 45.3070566,28.9681752 41.7708661,25.6372993 C40.2082287,24.2213869 39.0217819,22.5327372 37.8642727,20.7802555 Z M54.4340163,77.0279562 C50.2380456,83.7535401 48.2876427,91.8079927 49.1036866,99.7173723 C49.6187782,106.930401 52.6803899,113.708212 56.5985584,119.691022 C58.8325511,119.458905 60.6498405,118.69292 62.8838331,119.371861 C64.6548221,119.888321 66.6746756,120.033394 68.3125511,120.898029 C70.3613423,122.221095 70.8937965,124.29854 71.5767269,126.492044 C73.5676427,126.590693 75.5354082,126.608102 77.526324,126.538467 C78.2092544,124.362372 78.672258,122.255912 80.7441994,120.967664 C82.5325511,120.08562 84.6507928,119.865109 86.560683,119.279015 C88.4474229,118.681314 90.484639,119.493723 92.4292544,119.731642 C97.6264705,112.419964 100.74017,103.408029 100.207716,94.3728832 C99.7447123,88.2508029 97.8348221,82.3492336 94.7558478,77.0511679 C99.7447123,75.2000365 104.322661,72.7337956 107.743101,68.5382847 C111.643906,63.7160584 113.067643,56.8686131 111.742295,50.8335766 C111.076727,46.8527737 109.323101,43.3187956 107.152771,39.964708 C106.35409,40.5043796 105.549621,41.0440511 104.745152,41.5779197 C107.216434,45.4252555 108.657533,49.7136131 108.368155,54.3385401 C108.246617,61.3020438 104.010134,67.6678467 97.9621482,70.9464964 C94.5069833,72.8962774 90.9360676,73.4707664 87.2494009,74.7183942 C82.1968734,76.4244526 77.6304998,79.4187591 74.5746756,83.8637956 C72.3580456,81.0029562 69.7652251,78.5135036 66.5473496,76.8074453 C61.8131372,74.0220438 56.6448588,73.8131387 51.7891079,71.3294891 C46.5861042,68.8110219 42.6100602,63.9945985 41.1747489,58.3773723 C40.497606,55.5397445 40.4455181,52.5280292 40.8622214,49.6439781 C41.3599503,46.6090511 42.7836866,44.1370073 44.3868368,41.5837226 C43.5534302,41.0788686 42.7200236,40.5740146 41.8924046,40.0633577 C38.4314522,44.9320073 36.637313,50.7001095 36.7704265,56.6771168 C37.21028,61.3832847 38.8423679,65.9269708 42.077606,69.4319343 C45.4748954,73.1225912 49.7634668,75.3741241 54.4340163,77.0279562 Z M74.49365,77.8983942 C77.1617086,75.2638686 80.2175328,73.1283942 83.6842727,71.6892701 C87.5214156,69.9890146 91.6884485,69.5363869 95.3924778,67.7026642 C99.4842727,65.6832482 102.678998,62.01 103.85387,57.5591606 C105.225518,52.5744526 103.905958,47.7638321 101.162661,43.5335036 C99.2354082,44.305292 97.3081555,45.0886861 95.3693276,45.8372628 C96.5789247,47.9785401 97.5570199,50.0617883 97.313943,52.6092701 C97.0477159,57.7332482 92.2845657,61.7430657 87.197313,61.0873358 C83.2907196,60.8204015 81.004639,58.2032847 79.2915254,54.9362409 C78.3713057,55.9285401 76.6003167,57.1065328 76.3051518,58.4237956 C76.9070566,60.2168978 78.0240529,61.864927 78.8632471,63.5593796 C77.6825877,66.344781 76.4151152,69.2114234 74.7020016,71.7124818 C74.1174595,71.4571533 73.7875694,70.9871168 73.4576793,70.4590511 C72.097606,68.2829562 71.142661,65.9037591 70.1414156,63.5535766 C71.015335,61.719854 71.9760676,59.9905839 73.0699137,58.2903285 C71.9529174,57.1587591 70.8185584,56.0445985 69.6726243,54.9420438 C68.682954,56.6364964 67.8842727,58.2555109 66.2290346,59.4160949 C62.8259577,61.9461679 57.5766536,61.7140511 54.5439797,58.6733212 C52.0669101,56.4275912 51.0888148,52.9574453 51.9048588,49.7194161 C52.2810493,48.2977007 52.9929174,47.1139051 53.6526976,45.8256569 C51.7659577,45.1293066 49.9197306,44.3343066 48.0387782,43.6205474 C43.2235401,49.4408759 43.5707928,58.4470073 48.6464705,63.9945985 C51.9222214,67.7316788 56.2802434,68.9038686 60.8755547,70.174708 C66.0380456,71.55 70.7491079,74.0452555 74.49365,77.8983942 Z M67.3923313,53.195365 C66.6920383,52.6905109 65.9917452,52.179854 65.2972397,51.675 C64.6663972,52.9632482 64.1802434,54.709927 62.7854449,55.3714599 C60.2968002,56.6132847 56.9168734,54.9536496 56.8821482,52.034781 C56.6969467,50.2532847 57.8833936,49.220365 58.7920383,47.8624818 C57.8833936,47.7174088 56.9747489,47.5259124 56.0603167,47.4620803 C53.5022214,49.9051095 53.7915987,54.5242336 56.4422947,56.7873723 C58.6762873,58.8822263 62.2240529,59.1375547 64.6606097,57.24 C66.1074961,56.2070803 66.6688881,54.7563504 67.3923313,53.195365 Z M90.2357745,48.0655839 C91.1791445,49.365438 92.2672031,50.2532847 92.0820016,52.0289781 C92.0414888,54.9768613 88.6731372,56.5842701 86.1555547,55.3830657 C84.7781188,54.7157299 84.2572397,52.9284307 83.591672,51.6517883 C82.9087416,52.1740511 82.2200236,52.6963139 81.5370932,53.2185766 C82.5267635,55.4991241 83.6669101,57.4489051 86.2018551,58.1974818 C90.2589247,59.6424088 94.7326976,56.2651095 94.6806097,52.0231752 C94.8831738,49.9457299 93.8472031,48.5762409 92.6839064,47.0152555 C91.8678624,47.3634307 91.0518185,47.7116058 90.2357745,48.0655839 Z M100.254016,79.0937956 C103.720756,86.1675547 105.10398,94.1349635 103.842295,101.945693 C102.922075,108.781533 100.115115,114.833978 96.6310126,120.70073 C102.256507,116.470401 106.741855,111.085292 108.431818,104.110182 C109.716654,99.8334307 109.51409,95.5914964 109.635628,91.1928832 C110.8105,94.2162044 111.690207,97.5006569 111.626544,100.761898 C111.626544,102.978613 111.250353,105.264964 110.978339,107.470073 C114.665005,101.614927 116.841123,94.9415693 116.89321,87.9896715 C116.679071,81.9488321 114.861782,75.600438 111.273503,70.6911679 C107.945665,74.1613139 104.531013,76.8596715 100.254016,79.0937956 Z M36.9961408,71.8691606 C33.7146024,76.9931387 32.1056646,83.0745985 32.2329906,89.1444526 C32.4934302,95.8004015 34.7332104,102.17781 38.3562141,107.731204 C37.0366536,102.142993 37.2623679,96.5779927 39.4558478,91.2451095 C39.4500602,97.425219 39.860976,103.30938 42.4364339,109.025255 C44.7167269,113.882299 48.4554815,117.439489 52.5183386,120.805182 C48.8721848,114.48 45.9552617,108.108394 45.1276427,100.761898 C44.1206097,93.305146 45.555921,85.7729562 48.8548221,79.0531752 C44.6762141,76.8886861 40.815921,74.2541606 37.8584851,70.5286861 C37.5691079,70.9755109 37.2855181,71.4223358 36.9961408,71.8691606 Z M58.7631005,123.045109 C57.4203899,123.236606 55.8346024,122.812993 55.0127709,124.165073 C53.2996573,127.014307 54.462954,129.805511 56.0082287,132.382007 C56.8763606,130.890657 57.6981921,129.376095 58.5489613,127.873139 C59.2376793,129.840328 60.0363606,131.726277 61.2228075,133.449745 C62.3513789,131.668248 63.0979723,129.811314 63.6940895,127.791898 C64.4869833,129.352883 65.3261775,130.873248 66.2406097,132.358796 C67.8726976,129.973796 69.1575328,127.432117 67.5659577,124.635109 C66.6457379,122.958066 65.2914522,123.201788 63.6362141,123.254015 C62.8433203,122.836204 62.044639,122.424197 61.2228075,122.064416 C60.3951884,122.371971 59.584932,122.720146 58.7631005,123.045109 Z M85.5304998,123.341058 C84.7202434,123.294635 83.9157745,123.254015 83.1055181,123.225 C81.3981921,123.990985 80.7673496,126.283139 81.0220016,128.006606 C81.2187782,129.735876 82.1158478,131.000912 83.0592177,132.393613 C83.8984119,130.902263 84.6681555,129.381898 85.4436866,127.861533 C86.1439797,129.770693 86.9368734,131.59281 87.9265438,133.368504 C89.2692544,131.610219 90.0679357,129.782299 90.6987782,127.670036 C91.5090346,129.20781 92.2614156,130.774599 93.0311591,132.329781 C95.1667635,129.72427 96.1274961,126.062628 93.4594375,123.451314 C91.8504998,123.108942 90.2357745,122.900036 88.649987,122.453212 C87.3709394,122.035401 86.6417086,122.853613 85.5304998,123.341058 Z" id="p1"></path>
                        </g>
                        <g id="p2-link" transform="translate(41.269076, 24.470912)" fill="#000000" fill-rule="nonzero" stroke="#FFFFFF">
                            <path d="M0.239202717,0 C1.39671187,1.75248175 2.58315876,3.44113139 4.14579612,4.8570438 C7.6819866,8.18791971 11.9647705,9.83014599 16.5311441,11.2112409 C29.1479939,5.14138686 44.6528291,5.07755474 57.2349536,11.2692701 C61.3672613,9.99843066 65.2912174,8.44324818 68.7000818,5.69846715 C70.6678474,4.07945255 72.0626459,2.12386861 73.5616203,0.0928467153 C73.908873,3.34828467 73.9551734,6.48186131 72.4619866,9.47616788 C70.1990562,14.6871898 64.5909243,17.8033577 59.4805214,19.6022628 C55.1687998,21.1284307 50.7992027,22.7532482 46.7710708,24.935146 C42.6387632,27.2040876 39.2935617,30.7264599 36.86858,34.7478832 C34.3799353,30.714854 31.1099719,27.2563139 26.9660892,24.9177372 C23.2504848,22.8460949 19.1471148,21.389562 15.1652833,19.9156204 C11.6001551,18.6854015 8.21444081,17.1824453 5.30909283,14.7162044 C2.75099759,12.6387591 1.09575949,9.71989051 0.285503083,6.54569343 C-0.212225855,4.39281022 0.0540012513,2.17609489 0.239202717,0 Z" id="p2"></path>
                        </g>
                        <g id="p3-link" transform="translate(40.407526, 43.655365)" fill="#000000" fill-rule="nonzero" stroke="#FFFFFF">
                            <path d="M5.12888431,0.098649635 C5.95650336,0.609306569 6.78990995,1.11416058 7.62331654,1.6190146 C6.02016636,4.17229927 4.5964301,6.64434307 4.09870116,9.67927007 C3.68199786,12.5633212 3.73408577,15.5750365 4.41122863,18.4126642 C5.84653999,24.0298905 9.82258394,28.8463139 15.0255876,31.364781 C19.8813385,33.8484307 25.0496169,34.0573358 29.7838294,36.8427372 C33.0017048,38.5487956 35.5945253,41.0382482 37.8111554,43.8990876 C40.8669795,39.4540511 45.4333532,36.4597445 50.4858806,34.7536861 C54.1725473,33.5060584 57.7434631,32.9315693 61.1986279,30.9817883 C67.2466132,27.7031387 71.4830968,21.3373358 71.6046352,14.3738321 C71.8940125,9.74890511 70.4529136,5.46054745 67.9816316,1.61321168 C68.7861004,1.07934307 69.5905693,0.539671533 70.3892506,7.10542736e-15 C72.5595803,3.35408759 74.3132067,6.88806569 74.9787744,10.8688686 C76.3041224,16.9039051 74.8803861,23.7513504 70.9795803,28.5735766 C67.5591407,32.7690876 62.981192,35.2353285 57.9923275,37.0864599 C61.0713019,42.3845255 62.981192,48.2860949 63.4441957,54.4081752 C63.9766499,63.4433212 60.8629502,72.4552555 55.6657341,79.7669343 C53.7211187,79.5290146 51.6839026,78.7166058 49.7971627,79.3143066 C47.8872726,79.9004015 45.7690308,80.1209124 43.9806792,81.0029562 C41.9087378,82.2912044 41.4457341,84.3976642 40.7628037,86.5737591 C38.771888,86.6433942 36.8041224,86.6259854 34.8132067,86.5273358 C34.1302762,84.3338321 33.597822,82.2563869 31.5490308,80.9333212 C29.9111554,80.0686861 27.8913019,79.9236131 26.1203129,79.4071533 C23.8863202,78.7282117 22.0690308,79.4941971 19.8350382,79.7263139 C15.9168697,73.7435036 12.8552579,66.9656934 12.3401664,59.7526642 C11.5241224,51.8432847 13.4745253,43.7888321 17.670496,37.0632482 C12.9999466,35.4094161 8.71137515,33.1578832 5.31408577,29.4672263 C2.07884768,25.9622628 0.446759766,21.4185766 0.00690628636,16.7124088 C-0.126207267,10.7354015 1.66793193,4.96729927 5.12888431,0.098649635 Z M16.6287378,48.6690876 C16.7271261,51.0192701 17.0222909,53.1663504 18.6833165,54.9478467 C20.1012653,56.5494526 22.2773825,57.0543066 24.1525473,55.9053285 C26.7858806,54.3153285 27.393573,51.6401825 27.4514484,48.7387226 C26.0740125,50.0733942 24.6502762,52.3423358 22.7461737,52.8704015 C19.8466132,53.3636496 18.3534264,50.4041606 16.6287378,48.6690876 Z M48.2634631,48.8721898 C48.3213385,51.384854 48.6917415,53.6479927 50.6652946,55.3888686 C52.2800198,56.8918248 54.5313752,56.9962774 56.2444887,55.5861679 C58.4379686,53.8685036 58.9993605,51.4718978 58.9936171,48.7967518 C57.668225,50.1082117 56.3949649,52.1450365 54.6471261,52.8645985 C51.66654,53.6421898 50.0923275,50.5840511 48.2634631,48.8721898 Z M41.9434631,52.2668978 C40.797529,53.5029197 39.5763568,55.0174818 37.7127671,54.9188321 C35.5019246,55.0058759 33.788811,52.2204745 32.3477121,50.9206204 C32.70654,52.8123723 32.6544521,54.9130292 33.9392872,56.4624088 C35.2067598,58.0872263 37.3076389,59.3986861 39.3564301,58.2903285 C42.2039026,56.8337956 43.2803861,53.990365 43.1819979,50.8916058 C42.7652946,51.3500365 42.3543788,51.8084672 41.9434631,52.2668978 Z M33.9334997,60.6927372 C32.3419246,62.2363139 31.0570894,65.0275182 28.4642689,64.7605839 C26.3286645,64.8882482 24.8354777,62.1318613 23.417529,60.8378102 C23.4522543,62.6773358 23.3596535,64.3891971 24.4824374,65.9501825 C25.6920345,67.6910584 27.9144521,69.240438 30.0847817,68.224927 C33.1000931,66.8206204 33.968225,63.8205109 33.9334997,60.6927372 Z M41.7987744,60.8436131 C41.8103495,61.5283577 41.8277121,62.2072993 41.8566499,62.8920438 C42.0997268,65.7180657 44.5536462,68.8922628 47.6152579,68.4860584 C51.2903495,67.4589416 52.2973825,64.2151095 52.4362836,60.7333577 C50.9720345,62.1376642 49.2762836,64.9114599 46.9844154,64.7431752 C44.8140858,64.9462774 43.2167231,62.1434672 41.7987744,60.8436131 Z M32.5271261,70.7840146 C32.6776023,72.9368978 32.642877,74.8634672 34.1476389,76.5695255 C35.5598001,78.3510219 37.7243422,79.2910949 39.8136462,77.9970438 C42.5395803,76.4070438 43.0893971,73.7435036 43.2340858,70.7898175 C41.8161371,72.2057299 40.3924008,74.4688686 38.3609722,74.9621168 C35.6697634,75.3625182 34.0897634,72.4726642 32.5271261,70.7840146 Z" id="p3"></path>
                        </g>
                        <g id="p4-link" transform="translate(48.268899, 47.224161)" fill="#000000" fill-rule="nonzero" stroke="#FFFFFF">
                            <path d="M3.4138847,0.0870437956 C5.29483708,0.80080292 7.14106418,1.59580292 9.02780411,2.29215328 C8.36802389,3.58040146 7.65615576,4.76419708 7.27996528,6.18591241 C6.46392133,9.42394161 7.44201656,12.8940876 9.91908616,15.1398175 C12.9517602,18.1805474 18.2010642,18.4126642 21.6041411,15.8825912 C23.2593792,14.7220073 24.0580605,13.1029927 25.0477309,11.4085401 C26.1936649,12.5110949 27.3280239,13.6252555 28.4450202,14.7568248 C27.3511741,16.4570803 26.3904415,18.1863504 25.5165221,20.020073 C26.5177675,22.3702555 27.4727125,24.7494526 28.8327858,26.9255474 C29.1626759,27.4536131 29.492566,27.9236496 30.0771081,28.1789781 C31.7902217,25.6779197 33.0576942,22.8112774 34.2383536,20.0258759 C33.3991594,18.3314234 32.2821631,16.6833942 31.6802583,14.890292 C31.9754232,13.5730292 33.7464122,12.3950365 34.6666319,11.4027372 C36.3797455,14.669781 38.6658261,17.2868978 42.5724195,17.5538321 C47.6596722,18.209562 52.4228224,14.1997445 52.6890495,9.07576642 C52.9321265,6.52828467 51.9540312,4.4450365 50.7444341,2.30375912 C52.683262,1.55518248 54.6105147,0.771788321 56.5377675,0 C59.2810642,4.23032847 60.6006246,9.04094891 59.2289763,14.0256569 C58.0541045,18.4764964 54.8593792,22.1497445 50.7675843,24.1691606 C47.063555,26.0028832 42.8965221,26.4555109 39.0593792,28.1557664 C35.5926393,29.5948905 32.5368151,31.730365 29.8687565,34.3648905 C26.1242144,30.5117518 21.4131521,28.0164964 16.2506613,26.6412044 C11.6553499,25.370365 7.29732792,24.1981752 4.021577,20.4610949 C-1.05410065,14.9135036 -1.4013534,5.90737226 3.4138847,0.0870437956 Z" id="p4"></path>
                        </g>
                        <g id="p5-link" transform="translate(57.933919, 51.152737)" fill="#000000" fill-rule="nonzero" stroke="#FFFFFF">
                            <path d="M1.77040371,0 C2.68483595,0.0638321168 3.59348063,0.255328467 4.50212532,0.40040146 C3.59348063,1.75828467 2.40703375,2.79120438 2.59223521,4.57270073 C2.62696049,7.49156934 6.00688723,9.15120438 8.49553192,7.90937956 C9.89033045,7.24784672 10.3764843,5.50116788 11.0073268,4.21291971 C11.7018323,4.71777372 12.4021253,5.22843066 13.1024184,5.73328467 C12.3789751,7.29427007 11.8175832,8.745 10.3706968,9.77791971 C7.93413997,11.6754745 4.38637441,11.420146 2.15238173,9.32529197 C-0.498314238,7.06215328 -0.787691527,2.4430292 1.77040371,0 Z" id="p5"></path>
                        </g>
                        <g id="p6-link" transform="translate(85.181099, 50.705912)" fill="#000000" fill-rule="nonzero" stroke="#FFFFFF">
                            <path d="M11.1468132,0 C12.3101099,1.5609854 13.3460806,2.93047445 13.1435165,5.00791971 C13.1956044,9.24985401 8.7218315,12.6271533 4.6647619,11.1822263 C2.12981685,10.4336496 0.98967033,8.48386861 0,6.20332117 C0.682930403,5.68105839 1.37164835,5.15879562 2.05457875,4.63653285 C2.72014652,5.91317518 3.24102564,7.70047445 4.61846154,8.36781022 C7.13604396,9.5690146 10.5043956,7.96160584 10.5449084,5.01372263 C10.7301099,3.2380292 9.64205128,2.35018248 8.69868132,1.05032847 C9.51472527,0.696350365 10.3307692,0.348175182 11.1468132,0 Z" id="p6"></path>
                        </g>
                        <g id="p7-link" transform="translate(100.275018, 74.381825)" fill="#000000" fill-rule="nonzero" stroke="#FFFFFF">
                            <path d="M14.6424908,0 C18.2307692,4.90927007 20.0480586,11.2576642 20.2621978,17.2985036 C20.2101099,24.2504015 18.0339927,30.9237591 14.347326,36.7789051 C14.6193407,34.5737956 14.9955311,32.2874453 14.9955311,30.0707299 C15.0591941,26.8094891 14.1794872,23.5250365 13.0046154,20.5017153 C12.8830769,24.9003285 13.085641,29.1422628 11.8008059,33.4190146 C10.1108425,40.3941241 5.62549451,45.7792336 0,50.009562 C3.48410256,44.1428102 6.29106227,38.090365 7.21128205,31.2545255 C8.47296703,23.4437956 7.08974359,15.4763869 3.62300366,8.40262774 C7.9,6.16850365 11.314652,3.47014599 14.6424908,0 Z" id="p7"></path>
                        </g>
                        <g id="p8-link" transform="translate(35.869990, 74.219343)" fill="#000000" fill-rule="nonzero" stroke="#FFFFFF">
                            <path d="M5.63250058,0 C8.58993647,3.72547445 12.4502295,6.36 16.6288376,8.52448905 C13.3299365,15.2442701 11.8946251,22.7764599 12.9016581,30.2332117 C13.7292771,37.579708 16.6462002,43.9513139 20.2923541,50.2764964 C16.2294969,46.9108029 12.4907423,43.3536131 10.2104493,38.4965693 C7.63499142,32.7806934 7.22407567,26.8965328 7.22986321,20.7164234 C5.03638336,26.0493066 4.81066908,31.6143066 6.13022952,37.2025182 C2.50722585,31.6491241 0.267445632,25.2717153 0.00700607192,18.6157664 C-0.120319935,12.5459124 1.48861779,6.46445255 4.77015626,1.34047445 C5.05953354,0.893649635 5.34312329,0.446824818 5.63250058,0 Z" id="p8"></path>
                        </g>
                        <g id="p9-link" transform="translate(57.036264, 92.324453)" fill="#000000" fill-rule="nonzero" stroke="#2D5A40">
                            <path d="M-8.22459723e-15,0 C1.72468864,1.73507299 3.21787546,4.69456204 6.1174359,4.20131387 C8.02153846,3.67324818 9.44527473,1.40430657 10.8227106,0.0696350365 C10.7648352,2.97109489 10.1571429,5.64624088 7.52380952,7.23624088 C5.64864469,8.38521898 3.47252747,7.88036496 2.05457875,6.27875912 C0.393553114,4.49726277 0.0983882784,2.35018248 -8.22459723e-15,0 Z" id="p9"></path>
                        </g>
                        <g id="p10-link" transform="translate(88.670989, 92.452117)" fill="#000000" fill-rule="nonzero" stroke="#2D5A40">
                            <path d="M1.64491945e-14,0.0754379562 C1.82886447,1.78729927 3.40307692,4.84543796 6.383663,4.06784672 C8.13150183,3.34828467 9.4047619,1.31145985 10.730154,0 C10.7358974,2.67514599 10.1745055,5.07175182 7.98102564,6.78941606 C6.26791209,8.19952555 4.01655678,8.09507299 2.4018315,6.59211679 C0.428278388,4.85124088 0.0578754579,2.58810219 1.64491945e-14,0.0754379562 Z" id="p10"></path>
                        </g>
                        <g id="p11-link" transform="translate(72.755238, 94.546971)" fill="#000000" fill-rule="nonzero" stroke="#2D5A40">
                            <path d="M10.8342857,0 C10.932674,3.09875912 9.85619048,5.94218978 7.00871795,7.39872263 C4.95992674,8.50708029 2.85904762,7.19562044 1.59157509,5.57080292 C0.306739927,4.02142336 0.358827839,1.92076642 8.22459723e-15,0.0290145985 C1.4410989,1.32886861 3.15421245,4.11427007 5.36505495,4.02722628 C7.22864469,4.12587591 8.44981685,2.61131387 9.59575092,1.37529197 C10.0066667,0.916861314 10.4175824,0.458430657 10.8342857,0 Z" id="p11"></path>
                        </g>
                        <g id="p12-link" transform="translate(63.825055, 104.348102)" fill="#000000" fill-rule="nonzero" stroke="#2D5A40">
                            <path d="M0,0.145072993 C1.41794872,1.43912409 2.91113553,4.19551095 5.04673993,4.06784672 C7.63956044,4.33478102 8.9243956,1.54357664 10.5159707,0 C10.550696,3.12777372 9.6825641,6.12788321 6.66725275,7.53218978 C4.49692308,8.54770073 2.27450549,6.99832117 1.06490842,5.25744526 C-0.0578754579,3.69645985 0.0347252747,1.98459854 0,0.145072993 Z" id="p12"></path>
                        </g>
                        <g id="p13-link" transform="translate(82.206300, 104.388723)" fill="#000000" fill-rule="nonzero" stroke="#2D5A40">
                            <path d="M0,0.110255474 C1.41794872,1.41010949 3.01531136,4.21291971 5.18564103,4.00981752 C7.47750916,4.17810219 9.17326007,1.40430657 10.6375092,0 C10.4986081,3.48175182 9.49157509,6.72558394 5.81648352,7.75270073 C2.75487179,8.15890511 0.300952381,4.98470803 0.0578754579,2.15868613 C0.0289377289,1.47394161 0.0115750916,0.795 0,0.110255474 Z" id="p13"></path>
                        </g>
                        <g id="p14-link" transform="translate(72.934652, 114.439380)" fill="#000000" fill-rule="nonzero" stroke="#2D5A40">
                            <path d="M-1.64491945e-14,0 C1.56263736,1.68864964 3.14263736,4.57850365 5.83384615,4.17810219 C7.86527473,3.68485401 9.28901099,1.42171533 10.7069597,0.00580291971 C10.5622711,2.95948905 10.0124542,5.6230292 7.28652015,7.2130292 C5.19721612,8.50708029 3.03267399,7.5670073 1.62051282,5.78551095 C0.115750916,4.07945255 0.15047619,2.15288321 -1.64491945e-14,0 Z" id="p14"></path>
                        </g>
                        <g id="p15-link" transform="translate(57.808129, 125.755073)" fill="#000000" fill-rule="nonzero" stroke="#FFFFFF">
                            <path d="M7.05868398,0 C7.88051548,0.359781022 8.6791968,0.771788321 9.47209057,1.18959854 C11.1273287,1.13737226 12.4816144,0.893649635 13.4018342,2.57069343 C14.9934093,5.36770073 13.7085741,7.90937956 12.0764862,10.2943796 C11.1620539,8.80883212 10.3228598,7.28846715 9.52996603,5.72748175 C8.93384882,7.74689781 8.18725541,9.60383212 7.05868398,11.3853285 C5.87223709,9.66186131 5.07355577,7.77591241 4.38483783,5.80872263 C3.5340686,7.31167883 2.71223709,8.82624088 1.84410523,10.3175912 C0.2988305,7.74109489 -0.864466203,4.94989051 0.84864735,2.10065693 C1.67047885,0.748576642 3.2562664,1.17218978 4.59897702,0.980693431 C5.42080852,0.655729927 6.23106493,0.307554745 7.05868398,0 Z" id="p15"></path>
                        </g>
                        <g id="p16-link" transform="translate(84.611637, 126.028814)" fill="#000000" fill-rule="nonzero" stroke="#FFFFFF">
                            <path d="M7.6823553,0.115054807 C9.26814284,0.561879625 10.8828681,0.770784734 12.4918058,1.113157 C15.1598645,3.72447087 14.1991319,7.3861132 12.0635275,9.99162415 C11.2937839,8.43644167 10.5414029,6.86965335 9.7311465,5.33187962 C9.10030401,7.4441424 8.30162269,9.27206211 6.95891207,11.0303468 C5.96924174,9.25465335 5.17634797,7.43253656 4.47605493,5.52337598 C3.70052379,7.04374094 2.9307802,8.5641059 2.09158606,10.0554563 C1.1482161,8.66275554 0.251146504,7.39771904 0.0543699476,5.66844897 C-0.200282067,3.94498181 0.430560424,1.65282853 2.13788643,0.886843128 C2.94814284,0.915857727 3.75261171,0.956478165 4.56286812,1.00290152 C5.67407691,0.515456267 6.40330768,-0.302755412 7.6823553,0.115054807 Z" id="p16"></path>
                        </g>
                    </g>
                    <g>
                        <g id="p0-link" fill="#FFFFFF" fill-rule="nonzero">
                            <path d="M0,0 L158,0 L158,159 L0,159 L0,0 Z M30.6276923,3.9459854 C26.1423443,4.59591241 21.8306227,5.32708029 17.8372161,7.60762774 C12.4084982,10.770219 8.02732601,15.609854 5.59655678,21.4301825 C5.53289377,21.8421898 5.47501832,22.2483942 5.41135531,22.6604015 C5.14512821,23.4205839 4.90205128,24.1865693 4.65897436,24.9525547 C4.4621978,26.1189416 4.30593407,27.2911314 4.14388278,28.4575182 C3.53619048,32.0495255 3.76190476,35.8214234 3.67509158,39.459854 C3.60564103,66.5420803 3.67509158,93.6185036 3.66930403,120.70073 C3.6403663,126.648723 3.9181685,132.289161 6.09428571,137.894781 C9.81567766,147.289708 18.7921612,154.299635 28.9666667,154.833504 C32.7401465,155.466022 36.6930403,155.228102 40.5128205,155.320949 C66.169011,155.332555 91.830989,155.332555 117.487179,155.320949 C121.087033,155.251314 124.912601,155.448613 128.431429,154.781277 C129.23011,154.694234 130.023004,154.612993 130.821685,154.525949 C132.644762,153.899234 134.485201,153.307336 136.325641,152.73865 L136.331429,152.12354 L137.407912,152.523942 L137.517875,152.030693 C143.936264,149.053796 148.433187,143.506204 150.991282,136.989526 C151.494799,135.062956 151.946227,133.118978 152.432381,131.192409 C152.548132,127.693248 152.744908,124.199891 152.889597,120.70073 C152.901172,93.2355109 152.889597,65.7644891 152.901172,38.2992701 C152.768059,34.8291241 152.530769,31.3589781 152.380293,27.8830292 C152.148791,26.9023358 151.917289,25.9158394 151.743663,24.9177372 C151.355897,23.7107299 150.99707,22.4863139 150.638242,21.2677007 C148.774652,16.6485766 146.01978,12.5285036 141.980073,9.55740876 C138.44967,6.92288321 134.340513,5.1239781 129.959341,4.54368613 C126.562051,4.21291971 123.228425,3.62682482 119.802198,3.70226277 C92.6007326,3.68485401 65.3992674,3.69065693 38.1978022,3.69645985 C35.6860073,3.71967153 33.1279121,3.66744526 30.6276923,3.9459854 Z" id="p0"></path>
                        </g>
                        <g id="p1-link" transform="translate(3.644006, 3.690657)" fill="#2D5A40" fill-rule="nonzero">
                            <path d="M34.5537965,0.00580291971 C61.7552617,0 88.9567269,-0.00580291971 116.158192,0.0116058394 C119.584419,-0.0638321168 122.918046,0.522262774 126.315335,0.853029197 C130.696507,1.43332117 134.805665,3.23222628 138.336068,5.86675182 C142.375775,8.83784672 145.130646,12.9579197 146.994236,17.5770438 C147.353064,18.7956569 147.711892,20.020073 148.099657,21.2270803 C148.273284,22.2251825 148.504786,23.2116788 148.736287,24.1923723 C148.886764,27.6683212 149.124053,31.1384672 149.257166,34.6086131 C149.245591,62.0738321 149.257166,89.544854 149.245591,117.010073 C149.100903,120.509234 148.904126,124.002591 148.788375,127.501752 C148.302221,129.428321 147.850793,131.372299 147.347276,133.298869 C144.789181,139.815547 140.292258,145.363139 133.87387,148.340036 L133.763906,148.833285 L132.687423,148.432883 L132.681635,149.047993 C130.841196,149.616679 129.000756,150.208577 127.177679,150.835292 C126.378998,150.922336 125.586104,151.003577 124.787423,151.09062 C121.268595,151.757956 117.443027,151.560657 113.843174,151.630292 C88.1869833,151.641898 62.5250053,151.641898 36.8688148,151.630292 C33.0490346,151.537445 29.0961408,151.775365 25.322661,151.142847 C15.1481555,150.608978 6.17167196,143.599051 2.45028002,134.204124 C0.274162804,128.598504 -0.00363939363,122.958066 0.0252983353,117.010073 C0.0310858811,89.9278467 -0.0383646684,62.8514234 0.0310858811,35.7691971 C0.117899068,32.1307664 -0.107815218,28.3588686 0.49987709,24.7668613 C0.661928372,23.6004745 0.818192108,22.4282847 1.01496866,21.2618978 C1.25804559,20.4959124 1.50112251,19.729927 1.76734962,18.9697445 C1.83101262,18.5577372 1.88888808,18.1515328 1.95255108,17.7395255 C4.38332031,11.9191971 8.76449247,7.07956204 14.1932104,3.9169708 C18.186617,1.63642336 22.4983386,0.905255474 26.9836866,0.255328467 C29.4839064,-0.0232116788 32.0420016,0.0290145985 34.5537965,0.00580291971 Z M37.8642727,20.7802555 C37.6790712,22.9563504 37.4128441,25.1730657 37.9105731,27.3259489 C38.7208295,30.500146 40.3760676,33.4190146 42.9341628,35.4964599 C45.8395108,37.9627007 49.2252251,39.4656569 52.7903533,40.6958759 C56.7721848,42.1698175 60.8755547,43.6263504 64.5911591,45.6979927 C68.7350419,48.0365693 72.0050053,51.4951095 74.49365,55.5281387 C76.9186317,51.5067153 80.2638331,47.9843431 84.3961408,45.7154015 C88.4242727,43.5335036 92.7938698,41.9086861 97.1055914,40.3825182 C102.215994,38.5836131 107.824126,35.4674453 110.087057,30.2564234 C111.580243,27.2621168 111.533943,24.1285401 111.18669,20.8731022 C109.687716,22.9041241 108.292917,24.859708 106.325152,26.4787226 C102.916287,29.2235036 98.9923313,30.7786861 94.8600236,32.0495255 C82.2778991,25.8578102 66.7730639,25.9216423 54.1562141,31.9914964 C49.5898405,30.6104015 45.3070566,28.9681752 41.7708661,25.6372993 C40.2082287,24.2213869 39.0217819,22.5327372 37.8642727,20.7802555 Z M54.4340163,77.0279562 C50.2380456,83.7535401 48.2876427,91.8079927 49.1036866,99.7173723 C49.6187782,106.930401 52.6803899,113.708212 56.5985584,119.691022 C58.8325511,119.458905 60.6498405,118.69292 62.8838331,119.371861 C64.6548221,119.888321 66.6746756,120.033394 68.3125511,120.898029 C70.3613423,122.221095 70.8937965,124.29854 71.5767269,126.492044 C73.5676427,126.590693 75.5354082,126.608102 77.526324,126.538467 C78.2092544,124.362372 78.672258,122.255912 80.7441994,120.967664 C82.5325511,120.08562 84.6507928,119.865109 86.560683,119.279015 C88.4474229,118.681314 90.484639,119.493723 92.4292544,119.731642 C97.6264705,112.419964 100.74017,103.408029 100.207716,94.3728832 C99.7447123,88.2508029 97.8348221,82.3492336 94.7558478,77.0511679 C99.7447123,75.2000365 104.322661,72.7337956 107.743101,68.5382847 C111.643906,63.7160584 113.067643,56.8686131 111.742295,50.8335766 C111.076727,46.8527737 109.323101,43.3187956 107.152771,39.964708 C106.35409,40.5043796 105.549621,41.0440511 104.745152,41.5779197 C107.216434,45.4252555 108.657533,49.7136131 108.368155,54.3385401 C108.246617,61.3020438 104.010134,67.6678467 97.9621482,70.9464964 C94.5069833,72.8962774 90.9360676,73.4707664 87.2494009,74.7183942 C82.1968734,76.4244526 77.6304998,79.4187591 74.5746756,83.8637956 C72.3580456,81.0029562 69.7652251,78.5135036 66.5473496,76.8074453 C61.8131372,74.0220438 56.6448588,73.8131387 51.7891079,71.3294891 C46.5861042,68.8110219 42.6100602,63.9945985 41.1747489,58.3773723 C40.497606,55.5397445 40.4455181,52.5280292 40.8622214,49.6439781 C41.3599503,46.6090511 42.7836866,44.1370073 44.3868368,41.5837226 C43.5534302,41.0788686 42.7200236,40.5740146 41.8924046,40.0633577 C38.4314522,44.9320073 36.637313,50.7001095 36.7704265,56.6771168 C37.21028,61.3832847 38.8423679,65.9269708 42.077606,69.4319343 C45.4748954,73.1225912 49.7634668,75.3741241 54.4340163,77.0279562 Z M74.49365,77.8983942 C77.1617086,75.2638686 80.2175328,73.1283942 83.6842727,71.6892701 C87.5214156,69.9890146 91.6884485,69.5363869 95.3924778,67.7026642 C99.4842727,65.6832482 102.678998,62.01 103.85387,57.5591606 C105.225518,52.5744526 103.905958,47.7638321 101.162661,43.5335036 C99.2354082,44.305292 97.3081555,45.0886861 95.3693276,45.8372628 C96.5789247,47.9785401 97.5570199,50.0617883 97.313943,52.6092701 C97.0477159,57.7332482 92.2845657,61.7430657 87.197313,61.0873358 C83.2907196,60.8204015 81.004639,58.2032847 79.2915254,54.9362409 C78.3713057,55.9285401 76.6003167,57.1065328 76.3051518,58.4237956 C76.9070566,60.2168978 78.0240529,61.864927 78.8632471,63.5593796 C77.6825877,66.344781 76.4151152,69.2114234 74.7020016,71.7124818 C74.1174595,71.4571533 73.7875694,70.9871168 73.4576793,70.4590511 C72.097606,68.2829562 71.142661,65.9037591 70.1414156,63.5535766 C71.015335,61.719854 71.9760676,59.9905839 73.0699137,58.2903285 C71.9529174,57.1587591 70.8185584,56.0445985 69.6726243,54.9420438 C68.682954,56.6364964 67.8842727,58.2555109 66.2290346,59.4160949 C62.8259577,61.9461679 57.5766536,61.7140511 54.5439797,58.6733212 C52.0669101,56.4275912 51.0888148,52.9574453 51.9048588,49.7194161 C52.2810493,48.2977007 52.9929174,47.1139051 53.6526976,45.8256569 C51.7659577,45.1293066 49.9197306,44.3343066 48.0387782,43.6205474 C43.2235401,49.4408759 43.5707928,58.4470073 48.6464705,63.9945985 C51.9222214,67.7316788 56.2802434,68.9038686 60.8755547,70.174708 C66.0380456,71.55 70.7491079,74.0452555 74.49365,77.8983942 Z M67.3923313,53.195365 C66.6920383,52.6905109 65.9917452,52.179854 65.2972397,51.675 C64.6663972,52.9632482 64.1802434,54.709927 62.7854449,55.3714599 C60.2968002,56.6132847 56.9168734,54.9536496 56.8821482,52.034781 C56.6969467,50.2532847 57.8833936,49.220365 58.7920383,47.8624818 C57.8833936,47.7174088 56.9747489,47.5259124 56.0603167,47.4620803 C53.5022214,49.9051095 53.7915987,54.5242336 56.4422947,56.7873723 C58.6762873,58.8822263 62.2240529,59.1375547 64.6606097,57.24 C66.1074961,56.2070803 66.6688881,54.7563504 67.3923313,53.195365 Z M90.2357745,48.0655839 C91.1791445,49.365438 92.2672031,50.2532847 92.0820016,52.0289781 C92.0414888,54.9768613 88.6731372,56.5842701 86.1555547,55.3830657 C84.7781188,54.7157299 84.2572397,52.9284307 83.591672,51.6517883 C82.9087416,52.1740511 82.2200236,52.6963139 81.5370932,53.2185766 C82.5267635,55.4991241 83.6669101,57.4489051 86.2018551,58.1974818 C90.2589247,59.6424088 94.7326976,56.2651095 94.6806097,52.0231752 C94.8831738,49.9457299 93.8472031,48.5762409 92.6839064,47.0152555 C91.8678624,47.3634307 91.0518185,47.7116058 90.2357745,48.0655839 Z M100.254016,79.0937956 C103.720756,86.1675547 105.10398,94.1349635 103.842295,101.945693 C102.922075,108.781533 100.115115,114.833978 96.6310126,120.70073 C102.256507,116.470401 106.741855,111.085292 108.431818,104.110182 C109.716654,99.8334307 109.51409,95.5914964 109.635628,91.1928832 C110.8105,94.2162044 111.690207,97.5006569 111.626544,100.761898 C111.626544,102.978613 111.250353,105.264964 110.978339,107.470073 C114.665005,101.614927 116.841123,94.9415693 116.89321,87.9896715 C116.679071,81.9488321 114.861782,75.600438 111.273503,70.6911679 C107.945665,74.1613139 104.531013,76.8596715 100.254016,79.0937956 Z M36.9961408,71.8691606 C33.7146024,76.9931387 32.1056646,83.0745985 32.2329906,89.1444526 C32.4934302,95.8004015 34.7332104,102.17781 38.3562141,107.731204 C37.0366536,102.142993 37.2623679,96.5779927 39.4558478,91.2451095 C39.4500602,97.425219 39.860976,103.30938 42.4364339,109.025255 C44.7167269,113.882299 48.4554815,117.439489 52.5183386,120.805182 C48.8721848,114.48 45.9552617,108.108394 45.1276427,100.761898 C44.1206097,93.305146 45.555921,85.7729562 48.8548221,79.0531752 C44.6762141,76.8886861 40.815921,74.2541606 37.8584851,70.5286861 C37.5691079,70.9755109 37.2855181,71.4223358 36.9961408,71.8691606 Z M58.7631005,123.045109 C57.4203899,123.236606 55.8346024,122.812993 55.0127709,124.165073 C53.2996573,127.014307 54.462954,129.805511 56.0082287,132.382007 C56.8763606,130.890657 57.6981921,129.376095 58.5489613,127.873139 C59.2376793,129.840328 60.0363606,131.726277 61.2228075,133.449745 C62.3513789,131.668248 63.0979723,129.811314 63.6940895,127.791898 C64.4869833,129.352883 65.3261775,130.873248 66.2406097,132.358796 C67.8726976,129.973796 69.1575328,127.432117 67.5659577,124.635109 C66.6457379,122.958066 65.2914522,123.201788 63.6362141,123.254015 C62.8433203,122.836204 62.044639,122.424197 61.2228075,122.064416 C60.3951884,122.371971 59.584932,122.720146 58.7631005,123.045109 Z M85.5304998,123.341058 C84.7202434,123.294635 83.9157745,123.254015 83.1055181,123.225 C81.3981921,123.990985 80.7673496,126.283139 81.0220016,128.006606 C81.2187782,129.735876 82.1158478,131.000912 83.0592177,132.393613 C83.8984119,130.902263 84.6681555,129.381898 85.4436866,127.861533 C86.1439797,129.770693 86.9368734,131.59281 87.9265438,133.368504 C89.2692544,131.610219 90.0679357,129.782299 90.6987782,127.670036 C91.5090346,129.20781 92.2614156,130.774599 93.0311591,132.329781 C95.1667635,129.72427 96.1274961,126.062628 93.4594375,123.451314 C91.8504998,123.108942 90.2357745,122.900036 88.649987,122.453212 C87.3709394,122.035401 86.6417086,122.853613 85.5304998,123.341058 Z" id="p1"></path>
                        </g>
                        <g id="p2-link" transform="translate(41.269076, 24.470912)" fill="#FFFFFF" fill-rule="nonzero">
                            <path d="M0.239202717,0 C1.39671187,1.75248175 2.58315876,3.44113139 4.14579612,4.8570438 C7.6819866,8.18791971 11.9647705,9.83014599 16.5311441,11.2112409 C29.1479939,5.14138686 44.6528291,5.07755474 57.2349536,11.2692701 C61.3672613,9.99843066 65.2912174,8.44324818 68.7000818,5.69846715 C70.6678474,4.07945255 72.0626459,2.12386861 73.5616203,0.0928467153 C73.908873,3.34828467 73.9551734,6.48186131 72.4619866,9.47616788 C70.1990562,14.6871898 64.5909243,17.8033577 59.4805214,19.6022628 C55.1687998,21.1284307 50.7992027,22.7532482 46.7710708,24.935146 C42.6387632,27.2040876 39.2935617,30.7264599 36.86858,34.7478832 C34.3799353,30.714854 31.1099719,27.2563139 26.9660892,24.9177372 C23.2504848,22.8460949 19.1471148,21.389562 15.1652833,19.9156204 C11.6001551,18.6854015 8.21444081,17.1824453 5.30909283,14.7162044 C2.75099759,12.6387591 1.09575949,9.71989051 0.285503083,6.54569343 C-0.212225855,4.39281022 0.0540012513,2.17609489 0.239202717,0 Z" id="p2"></path>
                        </g>
                        <g id="p3-link" transform="translate(40.407526, 43.655365)" fill="#FFFFFF" fill-rule="nonzero">
                            <path d="M5.12888431,0.098649635 C5.95650336,0.609306569 6.78990995,1.11416058 7.62331654,1.6190146 C6.02016636,4.17229927 4.5964301,6.64434307 4.09870116,9.67927007 C3.68199786,12.5633212 3.73408577,15.5750365 4.41122863,18.4126642 C5.84653999,24.0298905 9.82258394,28.8463139 15.0255876,31.364781 C19.8813385,33.8484307 25.0496169,34.0573358 29.7838294,36.8427372 C33.0017048,38.5487956 35.5945253,41.0382482 37.8111554,43.8990876 C40.8669795,39.4540511 45.4333532,36.4597445 50.4858806,34.7536861 C54.1725473,33.5060584 57.7434631,32.9315693 61.1986279,30.9817883 C67.2466132,27.7031387 71.4830968,21.3373358 71.6046352,14.3738321 C71.8940125,9.74890511 70.4529136,5.46054745 67.9816316,1.61321168 C68.7861004,1.07934307 69.5905693,0.539671533 70.3892506,7.10542736e-15 C72.5595803,3.35408759 74.3132067,6.88806569 74.9787744,10.8688686 C76.3041224,16.9039051 74.8803861,23.7513504 70.9795803,28.5735766 C67.5591407,32.7690876 62.981192,35.2353285 57.9923275,37.0864599 C61.0713019,42.3845255 62.981192,48.2860949 63.4441957,54.4081752 C63.9766499,63.4433212 60.8629502,72.4552555 55.6657341,79.7669343 C53.7211187,79.5290146 51.6839026,78.7166058 49.7971627,79.3143066 C47.8872726,79.9004015 45.7690308,80.1209124 43.9806792,81.0029562 C41.9087378,82.2912044 41.4457341,84.3976642 40.7628037,86.5737591 C38.771888,86.6433942 36.8041224,86.6259854 34.8132067,86.5273358 C34.1302762,84.3338321 33.597822,82.2563869 31.5490308,80.9333212 C29.9111554,80.0686861 27.8913019,79.9236131 26.1203129,79.4071533 C23.8863202,78.7282117 22.0690308,79.4941971 19.8350382,79.7263139 C15.9168697,73.7435036 12.8552579,66.9656934 12.3401664,59.7526642 C11.5241224,51.8432847 13.4745253,43.7888321 17.670496,37.0632482 C12.9999466,35.4094161 8.71137515,33.1578832 5.31408577,29.4672263 C2.07884768,25.9622628 0.446759766,21.4185766 0.00690628636,16.7124088 C-0.126207267,10.7354015 1.66793193,4.96729927 5.12888431,0.098649635 Z M16.6287378,48.6690876 C16.7271261,51.0192701 17.0222909,53.1663504 18.6833165,54.9478467 C20.1012653,56.5494526 22.2773825,57.0543066 24.1525473,55.9053285 C26.7858806,54.3153285 27.393573,51.6401825 27.4514484,48.7387226 C26.0740125,50.0733942 24.6502762,52.3423358 22.7461737,52.8704015 C19.8466132,53.3636496 18.3534264,50.4041606 16.6287378,48.6690876 Z M48.2634631,48.8721898 C48.3213385,51.384854 48.6917415,53.6479927 50.6652946,55.3888686 C52.2800198,56.8918248 54.5313752,56.9962774 56.2444887,55.5861679 C58.4379686,53.8685036 58.9993605,51.4718978 58.9936171,48.7967518 C57.668225,50.1082117 56.3949649,52.1450365 54.6471261,52.8645985 C51.66654,53.6421898 50.0923275,50.5840511 48.2634631,48.8721898 Z M41.9434631,52.2668978 C40.797529,53.5029197 39.5763568,55.0174818 37.7127671,54.9188321 C35.5019246,55.0058759 33.788811,52.2204745 32.3477121,50.9206204 C32.70654,52.8123723 32.6544521,54.9130292 33.9392872,56.4624088 C35.2067598,58.0872263 37.3076389,59.3986861 39.3564301,58.2903285 C42.2039026,56.8337956 43.2803861,53.990365 43.1819979,50.8916058 C42.7652946,51.3500365 42.3543788,51.8084672 41.9434631,52.2668978 Z M33.9334997,60.6927372 C32.3419246,62.2363139 31.0570894,65.0275182 28.4642689,64.7605839 C26.3286645,64.8882482 24.8354777,62.1318613 23.417529,60.8378102 C23.4522543,62.6773358 23.3596535,64.3891971 24.4824374,65.9501825 C25.6920345,67.6910584 27.9144521,69.240438 30.0847817,68.224927 C33.1000931,66.8206204 33.968225,63.8205109 33.9334997,60.6927372 Z M41.7987744,60.8436131 C41.8103495,61.5283577 41.8277121,62.2072993 41.8566499,62.8920438 C42.0997268,65.7180657 44.5536462,68.8922628 47.6152579,68.4860584 C51.2903495,67.4589416 52.2973825,64.2151095 52.4362836,60.7333577 C50.9720345,62.1376642 49.2762836,64.9114599 46.9844154,64.7431752 C44.8140858,64.9462774 43.2167231,62.1434672 41.7987744,60.8436131 Z M32.5271261,70.7840146 C32.6776023,72.9368978 32.642877,74.8634672 34.1476389,76.5695255 C35.5598001,78.3510219 37.7243422,79.2910949 39.8136462,77.9970438 C42.5395803,76.4070438 43.0893971,73.7435036 43.2340858,70.7898175 C41.8161371,72.2057299 40.3924008,74.4688686 38.3609722,74.9621168 C35.6697634,75.3625182 34.0897634,72.4726642 32.5271261,70.7840146 Z" id="p3"></path>
                        </g>
                        <g id="p4-link" transform="translate(48.268899, 47.224161)" fill="#FFFFFF" fill-rule="nonzero">
                            <path d="M3.4138847,0.0870437956 C5.29483708,0.80080292 7.14106418,1.59580292 9.02780411,2.29215328 C8.36802389,3.58040146 7.65615576,4.76419708 7.27996528,6.18591241 C6.46392133,9.42394161 7.44201656,12.8940876 9.91908616,15.1398175 C12.9517602,18.1805474 18.2010642,18.4126642 21.6041411,15.8825912 C23.2593792,14.7220073 24.0580605,13.1029927 25.0477309,11.4085401 C26.1936649,12.5110949 27.3280239,13.6252555 28.4450202,14.7568248 C27.3511741,16.4570803 26.3904415,18.1863504 25.5165221,20.020073 C26.5177675,22.3702555 27.4727125,24.7494526 28.8327858,26.9255474 C29.1626759,27.4536131 29.492566,27.9236496 30.0771081,28.1789781 C31.7902217,25.6779197 33.0576942,22.8112774 34.2383536,20.0258759 C33.3991594,18.3314234 32.2821631,16.6833942 31.6802583,14.890292 C31.9754232,13.5730292 33.7464122,12.3950365 34.6666319,11.4027372 C36.3797455,14.669781 38.6658261,17.2868978 42.5724195,17.5538321 C47.6596722,18.209562 52.4228224,14.1997445 52.6890495,9.07576642 C52.9321265,6.52828467 51.9540312,4.4450365 50.7444341,2.30375912 C52.683262,1.55518248 54.6105147,0.771788321 56.5377675,0 C59.2810642,4.23032847 60.6006246,9.04094891 59.2289763,14.0256569 C58.0541045,18.4764964 54.8593792,22.1497445 50.7675843,24.1691606 C47.063555,26.0028832 42.8965221,26.4555109 39.0593792,28.1557664 C35.5926393,29.5948905 32.5368151,31.730365 29.8687565,34.3648905 C26.1242144,30.5117518 21.4131521,28.0164964 16.2506613,26.6412044 C11.6553499,25.370365 7.29732792,24.1981752 4.021577,20.4610949 C-1.05410065,14.9135036 -1.4013534,5.90737226 3.4138847,0.0870437956 Z" id="p4"></path>
                        </g>
                        <g id="p5-link" transform="translate(57.933919, 51.152737)" fill="#FFFFFF" fill-rule="nonzero">
                            <path d="M1.77040371,0 C2.68483595,0.0638321168 3.59348063,0.255328467 4.50212532,0.40040146 C3.59348063,1.75828467 2.40703375,2.79120438 2.59223521,4.57270073 C2.62696049,7.49156934 6.00688723,9.15120438 8.49553192,7.90937956 C9.89033045,7.24784672 10.3764843,5.50116788 11.0073268,4.21291971 C11.7018323,4.71777372 12.4021253,5.22843066 13.1024184,5.73328467 C12.3789751,7.29427007 11.8175832,8.745 10.3706968,9.77791971 C7.93413997,11.6754745 4.38637441,11.420146 2.15238173,9.32529197 C-0.498314238,7.06215328 -0.787691527,2.4430292 1.77040371,0 Z" id="p5"></path>
                        </g>
                        <g id="p6-link" transform="translate(85.181099, 50.705912)" fill="#FFFFFF" fill-rule="nonzero">
                            <path d="M11.1468132,0 C12.3101099,1.5609854 13.3460806,2.93047445 13.1435165,5.00791971 C13.1956044,9.24985401 8.7218315,12.6271533 4.6647619,11.1822263 C2.12981685,10.4336496 0.98967033,8.48386861 0,6.20332117 C0.682930403,5.68105839 1.37164835,5.15879562 2.05457875,4.63653285 C2.72014652,5.91317518 3.24102564,7.70047445 4.61846154,8.36781022 C7.13604396,9.5690146 10.5043956,7.96160584 10.5449084,5.01372263 C10.7301099,3.2380292 9.64205128,2.35018248 8.69868132,1.05032847 C9.51472527,0.696350365 10.3307692,0.348175182 11.1468132,0 Z" id="p6"></path>
                        </g>
                        <g id="p7-link" transform="translate(100.275018, 74.381825)" fill="#FFFFFF" fill-rule="nonzero">
                            <path d="M14.6424908,0 C18.2307692,4.90927007 20.0480586,11.2576642 20.2621978,17.2985036 C20.2101099,24.2504015 18.0339927,30.9237591 14.347326,36.7789051 C14.6193407,34.5737956 14.9955311,32.2874453 14.9955311,30.0707299 C15.0591941,26.8094891 14.1794872,23.5250365 13.0046154,20.5017153 C12.8830769,24.9003285 13.085641,29.1422628 11.8008059,33.4190146 C10.1108425,40.3941241 5.62549451,45.7792336 0,50.009562 C3.48410256,44.1428102 6.29106227,38.090365 7.21128205,31.2545255 C8.47296703,23.4437956 7.08974359,15.4763869 3.62300366,8.40262774 C7.9,6.16850365 11.314652,3.47014599 14.6424908,0 Z" id="p7"></path>
                        </g>
                        <g id="p8-link" transform="translate(35.869990, 74.219343)" fill="#FFFFFF" fill-rule="nonzero">
                            <path d="M5.63250058,0 C8.58993647,3.72547445 12.4502295,6.36 16.6288376,8.52448905 C13.3299365,15.2442701 11.8946251,22.7764599 12.9016581,30.2332117 C13.7292771,37.579708 16.6462002,43.9513139 20.2923541,50.2764964 C16.2294969,46.9108029 12.4907423,43.3536131 10.2104493,38.4965693 C7.63499142,32.7806934 7.22407567,26.8965328 7.22986321,20.7164234 C5.03638336,26.0493066 4.81066908,31.6143066 6.13022952,37.2025182 C2.50722585,31.6491241 0.267445632,25.2717153 0.00700607192,18.6157664 C-0.120319935,12.5459124 1.48861779,6.46445255 4.77015626,1.34047445 C5.05953354,0.893649635 5.34312329,0.446824818 5.63250058,0 Z" id="p8"></path>
                        </g>
                        <g id="p9-link" transform="translate(57.036264, 92.324453)" fill="#2D5A40" fill-rule="nonzero">
                            <path d="M-8.22459723e-15,0 C1.72468864,1.73507299 3.21787546,4.69456204 6.1174359,4.20131387 C8.02153846,3.67324818 9.44527473,1.40430657 10.8227106,0.0696350365 C10.7648352,2.97109489 10.1571429,5.64624088 7.52380952,7.23624088 C5.64864469,8.38521898 3.47252747,7.88036496 2.05457875,6.27875912 C0.393553114,4.49726277 0.0983882784,2.35018248 -8.22459723e-15,0 Z" id="p9"></path>
                        </g>
                        <g id="p10-link" transform="translate(88.670989, 92.452117)" fill="#2D5A40" fill-rule="nonzero">
                            <path d="M1.64491945e-14,0.0754379562 C1.82886447,1.78729927 3.40307692,4.84543796 6.383663,4.06784672 C8.13150183,3.34828467 9.4047619,1.31145985 10.730154,0 C10.7358974,2.67514599 10.1745055,5.07175182 7.98102564,6.78941606 C6.26791209,8.19952555 4.01655678,8.09507299 2.4018315,6.59211679 C0.428278388,4.85124088 0.0578754579,2.58810219 1.64491945e-14,0.0754379562 Z" id="p10"></path>
                        </g>
                        <g id="p11-link" transform="translate(72.755238, 94.546971)" fill="#2D5A40" fill-rule="nonzero">
                            <path d="M10.8342857,0 C10.932674,3.09875912 9.85619048,5.94218978 7.00871795,7.39872263 C4.95992674,8.50708029 2.85904762,7.19562044 1.59157509,5.57080292 C0.306739927,4.02142336 0.358827839,1.92076642 8.22459723e-15,0.0290145985 C1.4410989,1.32886861 3.15421245,4.11427007 5.36505495,4.02722628 C7.22864469,4.12587591 8.44981685,2.61131387 9.59575092,1.37529197 C10.0066667,0.916861314 10.4175824,0.458430657 10.8342857,0 Z" id="p11"></path>
                        </g>
                        <g id="p12-link" transform="translate(63.825055, 104.348102)" fill="#2D5A40" fill-rule="nonzero">
                            <path d="M0,0.145072993 C1.41794872,1.43912409 2.91113553,4.19551095 5.04673993,4.06784672 C7.63956044,4.33478102 8.9243956,1.54357664 10.5159707,0 C10.550696,3.12777372 9.6825641,6.12788321 6.66725275,7.53218978 C4.49692308,8.54770073 2.27450549,6.99832117 1.06490842,5.25744526 C-0.0578754579,3.69645985 0.0347252747,1.98459854 0,0.145072993 Z" id="p12"></path>
                        </g>
                        <g id="p13-link" transform="translate(82.206300, 104.388723)" fill="#2D5A40" fill-rule="nonzero">
                            <path d="M0,0.110255474 C1.41794872,1.41010949 3.01531136,4.21291971 5.18564103,4.00981752 C7.47750916,4.17810219 9.17326007,1.40430657 10.6375092,0 C10.4986081,3.48175182 9.49157509,6.72558394 5.81648352,7.75270073 C2.75487179,8.15890511 0.300952381,4.98470803 0.0578754579,2.15868613 C0.0289377289,1.47394161 0.0115750916,0.795 0,0.110255474 Z" id="p13"></path>
                        </g>
                        <g id="p14-link" transform="translate(72.934652, 114.439380)" fill="#2D5A40" fill-rule="nonzero">
                            <path d="M-1.64491945e-14,0 C1.56263736,1.68864964 3.14263736,4.57850365 5.83384615,4.17810219 C7.86527473,3.68485401 9.28901099,1.42171533 10.7069597,0.00580291971 C10.5622711,2.95948905 10.0124542,5.6230292 7.28652015,7.2130292 C5.19721612,8.50708029 3.03267399,7.5670073 1.62051282,5.78551095 C0.115750916,4.07945255 0.15047619,2.15288321 -1.64491945e-14,0 Z" id="p14"></path>
                        </g>
                        <g id="p15-link" transform="translate(57.808129, 125.755073)" fill="#FFFFFF" fill-rule="nonzero">
                            <path d="M7.05868398,0 C7.88051548,0.359781022 8.6791968,0.771788321 9.47209057,1.18959854 C11.1273287,1.13737226 12.4816144,0.893649635 13.4018342,2.57069343 C14.9934093,5.36770073 13.7085741,7.90937956 12.0764862,10.2943796 C11.1620539,8.80883212 10.3228598,7.28846715 9.52996603,5.72748175 C8.93384882,7.74689781 8.18725541,9.60383212 7.05868398,11.3853285 C5.87223709,9.66186131 5.07355577,7.77591241 4.38483783,5.80872263 C3.5340686,7.31167883 2.71223709,8.82624088 1.84410523,10.3175912 C0.2988305,7.74109489 -0.864466203,4.94989051 0.84864735,2.10065693 C1.67047885,0.748576642 3.2562664,1.17218978 4.59897702,0.980693431 C5.42080852,0.655729927 6.23106493,0.307554745 7.05868398,0 Z" id="p15"></path>
                        </g>
                        <g id="p16-link" transform="translate(84.611637, 126.028814)" fill="#FFFFFF" fill-rule="nonzero">
                            <path d="M7.6823553,0.115054807 C9.26814284,0.561879625 10.8828681,0.770784734 12.4918058,1.113157 C15.1598645,3.72447087 14.1991319,7.3861132 12.0635275,9.99162415 C11.2937839,8.43644167 10.5414029,6.86965335 9.7311465,5.33187962 C9.10030401,7.4441424 8.30162269,9.27206211 6.95891207,11.0303468 C5.96924174,9.25465335 5.17634797,7.43253656 4.47605493,5.52337598 C3.70052379,7.04374094 2.9307802,8.5641059 2.09158606,10.0554563 C1.1482161,8.66275554 0.251146504,7.39771904 0.0543699476,5.66844897 C-0.200282067,3.94498181 0.430560424,1.65282853 2.13788643,0.886843128 C2.94814284,0.915857727 3.75261171,0.956478165 4.56286812,1.00290152 C5.67407691,0.515456267 6.40330768,-0.302755412 7.6823553,0.115054807 Z" id="p16"></path>
                        </g>
                    </g>
                </g>
            </g>
        </g>
    </g>
</svg>