<svg xmlns="http://www.w3.org/2000/svg" viewBox="0 0 100 100" role="img" aria-label="Visor">
  <!--
      A sun visor, three-quarter view. White glyph on an accent tile, like the rest of the family;
      rounded tile at 22.44%, matching Appleseed's rx="35" on a 156px square.

      The artwork is the traced original with its own tile and its opaque white surround dropped —
      the two glyph paths alone are the complete shape, so the tile can be a real rounded rect at
      the family's radius instead of a traced approximation of one. The transform maps the old
      227.24-unit tile onto this 100-unit box and centres the glyph exactly while it is at it.
  -->
  <rect width="100" height="100" rx="22.44" fill="#0F766E"/>
  <g transform="scale(0.440063) translate(-34.34,-31.81)" fill="#FEFEFE">
    <path d="
      M 166.06 106.35 C 169.81 106.38 174.45 107.09 177.34 109.68 C 180.39 112.91 181.71 118.12 183.05 122.27 C
      184.27 126.67 186.20 131.46 185.54 136.04 C 184.77 136.91 183.90 137.37 182.96 137.43 C 178.06 137.89 173.11
      137.33 168.20 137.77 C 156.23 139.43 143.53 141.44 132.43 146.28 C 125.71 149.25 118.42 150.09 111.63 152.90
      C 103.47 156.25 95.14 159.09 86.89 162.18 C 83.26 163.51 79.37 165.34 75.50 165.67 C 73.77 165.61 71.50
      166.27 70.64 164.31 C 68.11 159.43 66.88 153.43 66.41 147.98 C 65.85 142.90 70.98 140.51 74.64 138.38 C
      89.73 130.01 105.41 122.49 121.45 116.11 C 135.50 111.28 151.07 105.85 166.06 106.35 Z"/>
    <path d="
      M 190.78 143.36 C 198.83 146.51 206.38 151.01 213.81 155.39 C 218.69 158.59 224.20 161.47 228.39 165.56 C
      231.54 168.94 227.77 174.56 223.65 174.58 C 217.79 175.13 213.07 172.61 208.52 169.26 C 214.02 167.27 218.86
      166.32 224.72 166.07 C 222.57 164.75 220.83 163.31 218.17 163.40 C 208.33 162.96 197.96 167.69 189.53 172.40
      C 183.83 175.40 179.41 178.94 173.36 180.94 C 166.36 183.20 158.54 185.02 151.14 184.43 C 143.22 183.57
      136.00 180.70 129.07 176.87 C 120.84 172.25 112.71 168.67 105.85 161.96 C 109.03 160.01 112.15 158.10 115.66
      156.79 C 133.53 150.52 152.10 144.85 170.82 141.81 C 177.24 141.32 184.75 140.81 190.78 143.36 Z"/>
  </g>
</svg>
